<svg xmlns="http://www.w3.org/2000/svg" viewBox="0 0 512 512">
  <defs>
    <linearGradient id="g" x1="0" y1="0" x2="1" y2="1">
      <stop offset="0" stop-color="#5865f2"/>
      <stop offset="1" stop-color="#7884ff"/>
    </linearGradient>
  </defs>
  <rect width="512" height="512" rx="130" fill="url(#g)"/>
  <path fill="#fff" d="M143 171c34-25 191-25 226 0 30 50 30 112 11 169-29 22-61 31-94 33l-13-29c16-4 31-10 45-20-39 18-87 22-125 0 14 10 29 16 45 20l-13 29c-33-2-65-11-94-33-19-57-19-119 12-169Z" opacity=".95"/>
  <circle cx="210" cy="260" r="28" fill="#5865f2"/>
  <circle cx="302" cy="260" r="28" fill="#5865f2"/>
</svg>
